# xmcd CD database file
#
# Track frame offsets:
#	150
#	14180
#	27453
#	40217
#	54062
#	66745
#	79503
#	93158
#	105770
#	120400
#	135217
#	147610
#	158798
#	172230
#	184396
#	197981
#	210742
#	221778
#	232809
#	246647
#
# Disc length: 3470 seconds
#
# Revision: 0
# Processed by: cddbd v1.5.2PL0 Copyright (c) Steve Scherf et al.
# Submitted via: CDex 1.70beta2
#
DISCID=250d8c14
DTITLE=Eddie Cleanhead Vinson - Shouting 'bout the Blues
DYEAR=2009
DGENRE=Blues
TTITLE0=King For A Day
TTITLE1=Someday's Gotta Go
TTITLE2=Cleanhead Blues
TTITLE3=Luxury Tax Blues
TTITLE4=Railroad Porter's Blues
TTITLE5=Cherry Red Blues
TTITLE6=Kidney Stew Blues
TTITLE7=Old Maid Boogie
TTITLE8=Mr Cleanhead Steps Out
TTITLE9=Juice Head Baby
TTITLE10=When I Get Drunk
TTITLE11=Wandering Mind Blues
TTITLE12=When A Woman Loves Her Juice
TTITLE13=Too Many Woman Blues
TTITLE14=I've Been So Good
TTITLE15=Lazy Girl
TTITLE16=Gonna Send You Back Where I Got You From
TTITLE17=Alimony Blues
TTITLE18=High Class Baby
TTITLE19=It's A Groovy Affair
EXTD=YEAR: 2009
EXTT0=
EXTT1=
EXTT2=
EXTT3=
EXTT4=
EXTT5=
EXTT6=
EXTT7=
EXTT8=
EXTT9=
EXTT10=
EXTT11=
EXTT12=
EXTT13=
EXTT14=
EXTT15=
EXTT16=
EXTT17=
EXTT18=
EXTT19=
PLAYORDER=
